<?xml version="1.0" encoding="UTF-8"?>
<svg id="svg5565" xmlns="http://www.w3.org/2000/svg" xmlns:svg="http://www.w3.org/2000/svg" xmlns:sodipodi="http://sodipodi.sourceforge.net/DTD/sodipodi-0.dtd" xmlns:rdf="http://www.w3.org/1999/02/22-rdf-syntax-ns#" xmlns:ns1="http://sozi.baierouge.fr" xmlns:inkscape="http://www.inkscape.org/namespaces/inkscape" xmlns:dc="http://purl.org/dc/elements/1.1/" xmlns:cc="http://creativecommons.org/ns#" version="1.1" viewBox="0 0 409 409">
  <!-- Generator: Adobe Illustrator 30.2.1, SVG Export Plug-In . SVG Version: 2.1.1 Build 1)  -->
  <defs>
    <style>
      .st0 {
        fill: #ea5d0f;
      }
    </style>
  </defs>
  <g id="layer1">
    <path id="path4352" class="st0" d="M190.7.5C78.2,8.1-7.1,105.8.5,218.3c7.6,112.5,105.3,197.9,217.8,190.3s197.9-105.3,190.3-217.9C401,78.2,303.2-7.1,190.7.5h0ZM192.7,30.4c96.3-6.5,179.4,66,185.9,162.3,5.8,86.4-51.9,162.1-133.3,181.5.4-1.3.6-2.8.9-4.2,2.2-7.4,3.5-18.5,2.7-19.4-2.2-2.6,8.7-29.5,13.9-34.4,6.9-6.5,10.1-21,8.2-36.6-1.4-11.6-.7-17.6,4.3-34.5,3.8-13.1,7.8-22.4,10.9-25.9,2.7-3,7.8-11.3,11.3-18.4,6.7-13.7,19.9-28.5,28.1-31.6,8.2-3.1,15.7-15.7,14.9-25-.9-11.1-4-15.7-9.1-13.3-2.9,1.4-4.9.9-7.7-2-3.3-3.4-3.8-3.2-4.7,1.3-.5,2.9-2.4,5.4-4.2,5.5-2.5.2-2.4-1.8.7-8.9,2.2-5,4-12.9,3.9-17.5-.1-8.1-7.3-26.9-10.6-27.9-.9-.3-7.9,5-15.4,11.8-20.3,18.1-52.2,41-57.8,41.4-2.7.2-7.7-.2-11.2-.9-6.4-1.3-16.1,3.1-38.9,17.5-9.9,6.3-15.8,8-29.7,8.6-10.7.5-20.6,2.6-25.7,5.7-7.6,4.5-8.2,5.4-6.7,10.9.9,3.3,6.2,10.7,11.8,16.3l10.2,10.2-6.3,9.9c-3.4,5.5-7.3,13.2-8.5,17.1-1.2,4-5.8,11.1-10.2,15.9-8.6,9.3-24.8,36.1-30,49.7-1.3,3.4-14.5,12.1-23.6,16.5-20.8-26.6-34.2-59.5-36.6-95.9C23.9,119.9,96.4,36.9,192.7,30.4h0Z"/>
  </g>
</svg>